<svg xmlns="http://www.w3.org/2000/svg" viewBox="0 0 640 240"><title>Logo WSI light</title><g id="Layer_2" data-name="Layer 2"><path d="M195.49,169.86a3.72,3.72,0,0,1,2.64-6.36h28.06s10.1,0,10.1-18.13-10.1-18.12-10.1-18.12H180a5.7,5.7,0,0,1-5.7-5.7V119a5.7,5.7,0,0,1,5.7-5.7h46.23s10.1,0,10.1-18.12S226.19,77,226.19,77h-28.6A3.73,3.73,0,0,1,195,70.67l.53-.53,40.89-40.89s9.85-9.85-3-22.67-22.67-3-22.67-3L172,42.4a3.74,3.74,0,0,1-4.59.54c-.75-.47-1.51-.92-2.28-1.37a3.72,3.72,0,0,1-1.87-3.23V14.08S163.23,4,145.11,4,127,14.08,127,14.08v68a12.78,12.78,0,0,1-3.74,9l-24.95,25a5.54,5.54,0,0,0,0,7.84l24.92,24.84a12.78,12.78,0,0,1,3.76,9.06v68.64s0,10.1,18.13,10.1,18.12-10.1,18.12-10.1v-24.8a3.72,3.72,0,0,1,1.87-3.23c.77-.45,1.53-.9,2.28-1.37a3.74,3.74,0,0,1,4.59.54l38.78,38.78s9.85,9.85,22.67-3,3-22.67,3-22.67Z" fill="#e83625"/><path d="M67,131.61a5.53,5.53,0,0,0-5.4-4.36H13.81s-10.1,0-10.1,18.12,10.1,18.13,10.1,18.13H37.46a5.56,5.56,0,0,1,4.77,2.7v0A5.54,5.54,0,0,1,41.4,173L3.62,210.75s-9.85,9.85,3,22.67,22.67,3,22.67,3L67,198.6a5.54,5.54,0,0,1,6.75-.84l.27.16a5.54,5.54,0,0,1,2.72,4.77v23.77s0,10.1,18.12,10.1S113,226.46,113,226.46v-48a5.54,5.54,0,0,0-4.39-5.41A54.33,54.33,0,0,1,67,131.61Z" fill="#0123f6"/><path d="M108.68,67a5.54,5.54,0,0,0,4.34-5.4V14.08S113,4,94.89,4s-18.12,10.1-18.12,10.1V37.31a5.57,5.57,0,0,1-2.72,4.77l-.27.16A5.54,5.54,0,0,1,67,41.4L29.25,3.62s-9.85-9.85-22.67,3-3,22.67-3,22.67L41.4,67a5.54,5.54,0,0,1,.84,6.75l-.31.52A5.55,5.55,0,0,1,37.15,77H13.81S3.71,77,3.71,95.16s10.1,18.12,10.1,18.12H61.5a5.53,5.53,0,0,0,5.41-4.38C71.4,88,88.83,71.36,108.68,67Z" fill="#0123f6"/></g><g id="Layer_3" data-name="Layer 3"><path d="M276.88,15.19h15l3.06,24.14c.59,5.78,1.27,11.56,1.87,17.34h.34c1-5.78,2-11.65,3.06-17.34l5.27-24.14h12.24L323,39.33c1,5.52,2,11.47,3.06,17.34h.34c.6-5.87,1.28-11.73,1.87-17.34l3.06-24.14h13.94L336,70.44H317.51l-4.25-21.93c-.85-4.25-1.53-8.84-2-12.92h-.34c-.59,4.08-1.19,8.67-2,12.92l-4.08,21.93H286.57Z" fill="#1c2033"/><path d="M350.15,15.36c0-4.25,3.4-7.31,8.16-7.31s8.16,3.06,8.16,7.31-3.4,7.31-8.16,7.31S350.15,19.61,350.15,15.36ZM351,27.94h14.62v42.5H351Z" fill="#1c2033"/><path d="M375.48,27.94h11.9l1,7.31h.34c3.14-5.78,7.9-8.33,12.07-8.33a12.65,12.65,0,0,1,5.27.85L403.7,40.35a20.07,20.07,0,0,0-4.76-.68c-3.06,0-6.8,1.87-8.84,7.14V70.44H375.48Z" fill="#1c2033"/><path d="M406.76,58.37c0-8.84,6.8-13.77,23.12-15.47-.34-3.06-2.21-4.42-5.95-4.42-3.06,0-6.29,1.19-10.71,3.57l-5.1-9.52a35.82,35.82,0,0,1,18.7-5.61c11.05,0,17.68,5.95,17.68,19.89V70.44H432.6l-1-4.08h-.34c-3.4,3.06-7.14,5.1-11.73,5.1C411.52,71.46,406.76,65.34,406.76,58.37Zm23.12-1V51.57c-7,1-9.18,3.23-9.18,5.61,0,2,1.36,3.06,3.91,3.06C427,60.24,428.35,59.05,429.88,57.35Z" fill="#1c2033"/><path d="M454.19,54.12V39.33h-5.61V28.45l6.46-.51,1.7-11h12.07V27.94h9.69V39.33h-9.69V53.87c0,4.67,2.38,6.2,5.1,6.2a12.22,12.22,0,0,0,3.74-.68l2.21,10.54a32.13,32.13,0,0,1-10,1.53C458.78,71.46,454.19,64.49,454.19,54.12Z" fill="#1c2033"/><path d="M482.92,58.37c0-8.84,6.8-13.77,23.12-15.47-.34-3.06-2.21-4.42-6-4.42-3.06,0-6.29,1.19-10.71,3.57l-5.1-9.52A35.82,35.82,0,0,1,503,26.92c11,0,17.68,5.95,17.68,19.89V70.44h-11.9l-1-4.08h-.34c-3.4,3.06-7.14,5.1-11.73,5.1C487.68,71.46,482.92,65.34,482.92,58.37Zm23.12-1V51.57c-7,1-9.18,3.23-9.18,5.61,0,2,1.36,3.06,3.91,3.06C503.15,60.24,504.51,59.05,506,57.35Z" fill="#1c2033"/><path d="M530.18,27.94h11.9l1,5.18h.34c3.4-3.31,7-6.2,12.75-6.2s9.43,2.38,11.73,6.8c3.49-3.57,7.31-6.8,13.09-6.8,9.35,0,13.43,6.8,13.43,17.34V70.44H579.82V46.13c0-5.44-1.36-6.8-4.25-6.8-1.7,0-3.74,1-6,3.23V70.44H555V46.13c0-5.44-1.36-6.8-4.25-6.8-1.7,0-3.74,1-6,3.23V70.44H530.18Z" fill="#1c2033"/><path d="M602.26,58.37c0-8.84,6.8-13.77,23.12-15.47-.34-3.06-2.21-4.42-6-4.42-3.06,0-6.29,1.19-10.71,3.57l-5.1-9.52a35.82,35.82,0,0,1,18.7-5.61c11,0,17.68,5.95,17.68,19.89V70.44H628.1l-1-4.08h-.34c-3.4,3.06-7.14,5.1-11.73,5.1C607,71.46,602.26,65.34,602.26,58.37Zm23.12-1V51.57c-7,1-9.18,3.23-9.18,5.61,0,2,1.36,3.06,3.91,3.06C622.49,60.24,623.85,59.05,625.38,57.35Z" fill="#1c2033"/><path d="M278.75,135.56l8.33-10c3.91,3.14,8.84,5.35,12.92,5.35,4.42,0,6.29-1.44,6.29-3.91,0-2.63-2.81-3.48-7.48-5.36l-6.89-2.89c-5.95-2.38-11.13-7.39-11.13-15.38,0-9.44,8.5-17.17,20.57-17.17a26.58,26.58,0,0,1,18.36,7.39l-7.31,9.18c-3.74-2.63-7-4-11.05-4-3.57,0-5.78,1.27-5.78,3.74,0,2.63,3.14,3.57,8.16,5.52l6.72,2.64c6.88,2.72,10.79,7.48,10.79,15.13,0,9.35-7.82,17.68-21.59,17.68A32,32,0,0,1,278.75,135.56Z" fill="#1c2033"/><path d="M328.05,87.36c0-4.25,3.4-7.31,8.16-7.31s8.16,3.06,8.16,7.31-3.4,7.31-8.16,7.31S328.05,91.61,328.05,87.36Zm.85,12.58h14.62v42.5H328.9Z" fill="#1c2033"/><path d="M350,137.51l6.46-9c3.91,2.89,7.39,4.25,10.37,4.25s4.25-.85,4.25-2.55c0-2.21-3.91-3.23-8.16-4.93-4.93-2-10.71-5.61-10.71-12.58,0-8.33,6.8-13.77,16.83-13.77a25.13,25.13,0,0,1,15.64,5.61l-6.46,8.67c-3.06-2.21-6-3.57-8.67-3.57-2.47,0-3.74.68-3.74,2.38,0,2.21,3.74,3.06,8,4.59,5.1,1.87,10.88,5.1,10.88,12.75,0,8-6.29,14.11-18.19,14.11A28.35,28.35,0,0,1,350,137.51Z" fill="#1c2033"/><path d="M392,126.12V111.33h-5.61V100.45l6.46-.51,1.7-11h12.07v11h9.69v11.39h-9.69v14.54c0,4.67,2.38,6.2,5.1,6.2a12.22,12.22,0,0,0,3.74-.68l2.21,10.54a32.13,32.13,0,0,1-10,1.53C396.56,143.46,392,136.49,392,126.12Z" fill="#1c2033"/><path d="M420.19,121.19c0-13.77,10-22.27,20.4-22.27,12.58,0,18.53,9.18,18.53,20.57a30.86,30.86,0,0,1-.59,6.12H434.3c1.36,5.1,5.1,6.8,9.86,6.8a17.45,17.45,0,0,0,8.67-2.55l4.76,8.67a28.63,28.63,0,0,1-15.47,4.93C429.71,143.46,420.19,135.3,420.19,121.19Zm26.52-5.1c0-3.23-1.36-6.12-5.78-6.12-3.23,0-5.95,1.87-6.8,6.12Z" fill="#1c2033"/><path d="M467.11,99.94H479l1,5.18h.34c3.4-3.31,7-6.2,12.75-6.2s9.43,2.38,11.73,6.8c3.48-3.57,7.31-6.8,13.09-6.8,9.35,0,13.43,6.8,13.43,17.34v26.18H516.75V118.13c0-5.44-1.36-6.8-4.25-6.8-1.7,0-3.74,1-5.95,3.23v27.88H491.93V118.13c0-5.44-1.36-6.8-4.25-6.8-1.7,0-3.74,1-5.95,3.23v27.88H467.11Z" fill="#1c2033"/><path d="M282.15,159.19h14.62v55.25H282.15Z" fill="#1c2033"/><path d="M307.82,171.94h11.9l1,5.1h.34c3.4-3.23,7.65-6.12,13.43-6.12,9.35,0,13.26,6.8,13.26,17.34v26.18H333.15V190.13c0-5.44-1.36-6.8-4.25-6.8-2.72,0-4.25,1.19-6.46,3.23v27.88H307.82Z" fill="#1c2033"/><path d="M359.16,198.12V183.33h-5.61V172.45l6.46-.51,1.7-11.05h12.07v11.05h9.69v11.39h-9.69v14.54c0,4.67,2.38,6.2,5.1,6.2a12.22,12.22,0,0,0,3.74-.68l2.21,10.54a32.13,32.13,0,0,1-10,1.53C363.75,215.46,359.16,208.49,359.16,198.12Z" fill="#1c2033"/><path d="M387.38,193.19c0-13.77,10-22.27,20.4-22.27,12.58,0,18.53,9.18,18.53,20.57a29.94,29.94,0,0,1-.6,6.12H401.49c1.36,5.1,5.1,6.8,9.86,6.8a17.45,17.45,0,0,0,8.67-2.55l4.76,8.67a28.63,28.63,0,0,1-15.47,4.93C396.9,215.46,387.38,207.3,387.38,193.19Zm26.52-5.1c0-3.23-1.36-6.12-5.78-6.12-3.23,0-5.95,1.87-6.8,6.12Z" fill="#1c2033"/><path d="M431.07,221.41c0-3.48,2-6.12,5.95-8.16v-.34a8.38,8.38,0,0,1-3.91-7.31c0-2.89,1.87-5.95,4.76-8v-.34a13.18,13.18,0,0,1-5.78-10.88c0-10.54,8.84-15.47,18.19-15.47a21.92,21.92,0,0,1,6.8,1h15.81v10.54h-6.12a15.09,15.09,0,0,1,.68,4.42c0,10-7.65,14.11-17.17,14.11a21.56,21.56,0,0,1-4.76-.59,2.67,2.67,0,0,0-1,2.46c0,1.87,1.7,2.55,5.95,2.55h6.37c10.63,0,16.75,3.23,16.75,11,0,9.18-9.52,15.47-24.65,15.47C439.23,232,431.07,229.06,431.07,221.41ZM459.63,219c0-2.21-2-2.55-5.7-2.55h-3.31a22.48,22.48,0,0,1-6.12-.51A4.12,4.12,0,0,0,443,219c0,2.72,3.4,3.91,8.33,3.91C456.06,222.94,459.63,221.41,459.63,219Zm-4.76-32.64c0-3.91-1.87-5.78-4.59-5.78s-4.59,1.87-4.59,5.78c0,4.08,1.87,6,4.59,6S454.87,190.47,454.87,186.39Z" fill="#1c2033"/><path d="M479.86,171.94h11.9l1,7.31h.34c3.14-5.78,7.9-8.33,12.07-8.33a12.65,12.65,0,0,1,5.27.85l-2.38,12.58a20.07,20.07,0,0,0-4.76-.68c-3.06,0-6.8,1.87-8.84,7.14v23.63H479.86Z" fill="#1c2033"/><path d="M511.13,202.37c0-8.84,6.81-13.77,23.13-15.47-.34-3.06-2.21-4.42-6-4.42-3.06,0-6.29,1.19-10.72,3.57l-5.09-9.52a35.82,35.82,0,0,1,18.7-5.61c11,0,17.68,6,17.68,19.89v23.63H537l-1-4.08h-.34c-3.4,3.06-7.14,5.1-11.73,5.1C515.89,215.46,511.13,209.34,511.13,202.37Zm23.13-1v-5.78c-7,1-9.18,3.23-9.18,5.61,0,2,1.36,3.06,3.91,3.06C531.37,204.24,532.73,203.05,534.26,201.35Z" fill="#1c2033"/><path d="M555,209.51l6.46-9c3.92,2.89,7.4,4.25,10.38,4.25s4.25-.85,4.25-2.55c0-2.21-3.91-3.23-8.16-4.93-4.94-2-10.72-5.61-10.72-12.58,0-8.33,6.8-13.77,16.84-13.77a25.13,25.13,0,0,1,15.64,5.61l-6.46,8.67c-3.06-2.21-6-3.57-8.67-3.57-2.47,0-3.74.68-3.74,2.38,0,2.21,3.74,3.06,8,4.59,5.1,1.87,10.88,5.1,10.88,12.75,0,8-6.29,14.11-18.19,14.11A28.35,28.35,0,0,1,555,209.51Z" fill="#1c2033"/><path d="M596,159.36c0-4.25,3.4-7.31,8.16-7.31s8.17,3.06,8.17,7.31-3.41,7.31-8.17,7.31S596,163.61,596,159.36Zm.85,12.58h14.63v42.5H596.81Z" fill="#1c2033"/></g></svg>